<svg width="51" height="51" viewBox="0 0 51 51" fill="none" xmlns="http://www.w3.org/2000/svg">
<path d="M45.6279 12.5032C44.1234 13.1522 42.4862 13.6193 40.7998 13.8012C42.5507 12.7611 43.8618 11.1177 44.4873 9.17961C42.8443 10.157 41.0444 10.8423 39.1675 11.2053C38.383 10.3666 37.4342 9.69851 36.3803 9.24258C35.3263 8.78665 34.1897 8.55266 33.0414 8.5552C28.3951 8.5552 24.6585 12.3213 24.6585 16.943C24.6585 17.592 24.7372 18.241 24.865 18.8654C17.908 18.5015 11.7032 15.1779 7.57815 10.0892C6.82652 11.373 6.43264 12.8348 6.43749 14.3224C6.43749 17.233 7.9174 19.7995 10.1741 21.3089C8.8442 21.2566 7.54542 20.891 6.38341 20.242V20.3453C6.38341 24.4212 9.26455 27.7989 13.1044 28.5757C12.3835 28.763 11.6418 28.8588 10.8969 28.8609C10.3511 28.8609 9.83488 28.8068 9.31372 28.733C10.3757 32.0567 13.4683 34.4707 17.1508 34.5494C14.2697 36.8061 10.6609 38.1336 6.74233 38.1336C6.03925 38.1336 5.39025 38.109 4.71667 38.0304C8.43364 40.4149 12.8439 41.7916 17.5933 41.7916C33.0119 41.7916 41.4488 29.0182 41.4488 17.9312C41.4488 17.5674 41.4488 17.2035 41.4242 16.8397C43.0565 15.645 44.4873 14.1651 45.6279 12.5032Z" fill="#112D57"/>
</svg>
