<svg width="52" height="51" viewBox="0 0 52 51" fill="none" xmlns="http://www.w3.org/2000/svg">
<path d="M44.0928 5.50684H7.90645C7.03621 5.50684 6.33313 6.20991 6.33313 7.08016V43.2665C6.33313 44.1368 7.03621 44.8399 7.90645 44.8399H44.0928C44.9631 44.8399 45.6661 44.1368 45.6661 43.2665V7.08016C45.6661 6.20991 44.9631 5.50684 44.0928 5.50684ZM39.5499 16.9872H36.4081C33.9449 16.9872 33.468 18.1573 33.468 19.8781V23.6689H39.3483L38.5813 29.6032H33.468V44.8399H27.337V29.6081H22.2089V23.6689H27.337V19.2931C27.337 14.2142 30.4394 11.4461 34.9725 11.4461C37.1456 11.4461 39.009 11.6084 39.5548 11.6821V16.9872H39.5499Z" fill="#112D57"/>
</svg>
