<svg width="109" height="117" viewBox="0 0 109 117" fill="none" xmlns="http://www.w3.org/2000/svg">
<path d="M54.5 46.534C52.3319 46.534 50.2525 47.1644 48.7194 48.2864C47.1863 49.4084 46.325 50.9302 46.325 52.517C46.325 54.1038 47.1863 55.6256 48.7194 56.7476C50.2525 57.8696 52.3319 58.4999 54.5 58.4999C56.6681 58.4999 58.7475 57.8696 60.2806 56.7476C61.8137 55.6256 62.675 54.1038 62.675 52.517C62.675 50.9302 61.8137 49.4084 60.2806 48.2864C58.7475 47.1644 56.6681 46.534 54.5 46.534Z" fill="#FFFCFC"/>
<path fill-rule="evenodd" clip-rule="evenodd" d="M16.35 39.5539C16.35 36.7991 19.402 34.5681 23.1625 34.5681H85.8375C89.598 34.5681 92.65 36.8018 92.65 39.5539V65.48C92.65 68.2349 89.598 70.4658 85.8375 70.4658H23.1625C22.2679 70.4658 21.382 70.3369 20.5555 70.0863C19.7289 69.8358 18.9779 69.4685 18.3453 69.0055C17.7127 68.5426 17.2109 67.9929 16.8686 67.388C16.5262 66.7831 16.35 66.1348 16.35 65.48V39.5539ZM40.875 52.517C40.875 49.8724 42.3105 47.3361 44.8657 45.466C47.4209 43.596 50.8864 42.5454 54.5 42.5454C58.1136 42.5454 61.5791 43.596 64.1343 45.466C66.6895 47.3361 68.125 49.8724 68.125 52.517C68.125 55.1616 66.6895 57.6979 64.1343 59.568C61.5791 61.438 58.1136 62.4886 54.5 62.4886C50.8864 62.4886 47.4209 61.438 44.8657 59.568C42.3105 57.6979 40.875 55.1616 40.875 52.517ZM79.025 50.5227C78.3023 50.5227 77.6092 50.7328 77.0981 51.1068C76.5871 51.4808 76.3 51.9881 76.3 52.517V52.5383C76.3 53.6391 77.5208 54.5326 79.025 54.5326H79.0541C79.7768 54.5326 80.4699 54.3225 80.9809 53.9485C81.492 53.5744 81.7791 53.0672 81.7791 52.5383V52.517C81.7791 51.9881 81.492 51.4808 80.9809 51.1068C80.4699 50.7328 79.7768 50.5227 79.0541 50.5227H79.025ZM27.25 52.517C27.25 51.9881 27.5371 51.4808 28.0481 51.1068C28.5592 50.7328 29.2523 50.5227 29.975 50.5227H30.0041C30.7268 50.5227 31.4199 50.7328 31.9309 51.1068C32.442 51.4808 32.7291 51.9881 32.7291 52.517V52.5383C32.7291 53.0672 32.442 53.5744 31.9309 53.9485C31.4199 54.3225 30.7268 54.5326 30.0041 54.5326H29.975C29.2523 54.5326 28.5592 54.3225 28.0481 53.9485C27.5371 53.5744 27.25 53.0672 27.25 52.5383V52.517Z" fill="#FFFBFB"/>
<path d="M19.075 74.4545C18.3523 74.4545 17.6592 74.6646 17.1481 75.0386C16.6371 75.4126 16.35 75.9199 16.35 76.4488C16.35 76.9777 16.6371 77.485 17.1481 77.859C17.6592 78.233 18.3523 78.4431 19.075 78.4431C38.695 78.4431 57.6973 80.363 75.755 83.9607C80.0787 84.8223 84.475 82.4769 84.475 79.1212V76.4488C84.475 75.9199 84.1879 75.4126 83.6769 75.0386C83.1658 74.6646 82.4727 74.4545 81.75 74.4545H19.075Z" fill="white"/>
</svg>
