<svg width="862" height="497" viewBox="0 0 862 497" fill="none" xmlns="http://www.w3.org/2000/svg">
<path fill-rule="evenodd" clip-rule="evenodd" d="M614.913 0.0289103C660.961 -1.03399 700.722 27.4039 738.56 53.621C777.239 80.4199 814.54 109.729 834.605 152.246C856.597 198.849 870.984 252.388 855.562 301.549C840.072 350.928 793.034 380.316 752.818 412.965C709.998 447.728 670.073 494.992 614.913 496.92C559.259 498.866 506.108 465.012 469.805 422.86C437.453 385.295 448.033 329.669 430.845 283.197C412.534 233.687 351.632 193.569 366.241 142.847C380.771 92.3984 449.77 85.4132 495.351 59.2348C534.88 36.5325 569.32 1.08128 614.913 0.0289103Z" fill="#00B6F0"/>
</svg>
