<svg width="114" height="94" viewBox="0 0 114 94" fill="none" xmlns="http://www.w3.org/2000/svg">
<ellipse cx="20.1793" cy="3.16656" rx="2.5" ry="2.62469" transform="rotate(14.4844 20.1793 3.16656)" fill="#1ABCFE"/>
<ellipse cx="9.22817" cy="45.5593" rx="2.5" ry="2.62469" transform="rotate(14.4844 9.22817 45.5593)" fill="#1ABCFE"/>
<ellipse cx="56.381" cy="12.5184" rx="2.5" ry="2.62469" transform="rotate(14.4844 56.381 12.5184)" fill="#1ABCFE"/>
<ellipse cx="45.4298" cy="54.9112" rx="2.5" ry="2.62469" transform="rotate(14.4844 45.4298 54.9112)" fill="#1ABCFE"/>
<ellipse cx="92.5827" cy="21.8703" rx="2.5" ry="2.62469" transform="rotate(14.4844 92.5827 21.8703)" fill="#1ABCFE"/>
<ellipse cx="81.6312" cy="64.2631" rx="2.5" ry="2.62469" transform="rotate(14.4844 81.6312 64.2631)" fill="#1ABCFE"/>
<ellipse cx="14.7038" cy="24.3628" rx="2.5" ry="2.62469" transform="rotate(14.4844 14.7038 24.3628)" fill="#1ABCFE"/>
<ellipse cx="3.75259" cy="66.7554" rx="2.5" ry="2.62469" transform="rotate(14.4844 3.75259 66.7554)" fill="#1ABCFE"/>
<ellipse cx="50.9054" cy="33.7147" rx="2.5" ry="2.62469" transform="rotate(14.4844 50.9054 33.7147)" fill="#1ABCFE"/>
<ellipse cx="39.9542" cy="76.1072" rx="2.5" ry="2.62469" transform="rotate(14.4844 39.9542 76.1072)" fill="#1ABCFE"/>
<ellipse cx="87.1071" cy="43.0666" rx="2.5" ry="2.62469" transform="rotate(14.4844 87.1071 43.0666)" fill="#1ABCFE"/>
<ellipse cx="76.1559" cy="85.4591" rx="2.5" ry="2.62469" transform="rotate(14.4844 76.1559 85.4591)" fill="#1ABCFE"/>
<ellipse cx="38.2802" cy="7.84252" rx="2.5" ry="2.62469" transform="rotate(14.4844 38.2802 7.84252)" fill="#1ABCFE"/>
<ellipse cx="27.329" cy="50.2353" rx="2.5" ry="2.62469" transform="rotate(14.4844 27.329 50.2353)" fill="#1ABCFE"/>
<ellipse cx="74.4818" cy="17.1943" rx="2.5" ry="2.62469" transform="rotate(14.4844 74.4818 17.1943)" fill="#1ABCFE"/>
<ellipse cx="63.5307" cy="59.5872" rx="2.5" ry="2.62469" transform="rotate(14.4844 63.5307 59.5872)" fill="#1ABCFE"/>
<ellipse cx="110.683" cy="26.5462" rx="2.5" ry="2.62469" transform="rotate(14.4844 110.683 26.5462)" fill="#1ABCFE"/>
<ellipse cx="99.7321" cy="68.939" rx="2.5" ry="2.62469" transform="rotate(14.4844 99.7321 68.939)" fill="#1ABCFE"/>
<ellipse cx="32.8046" cy="29.0388" rx="2.5" ry="2.62469" transform="rotate(14.4844 32.8046 29.0388)" fill="#1ABCFE"/>
<ellipse cx="21.8534" cy="71.4313" rx="2.5" ry="2.62469" transform="rotate(14.4844 21.8534 71.4313)" fill="#1ABCFE"/>
<ellipse cx="69.0062" cy="38.3906" rx="2.5" ry="2.62469" transform="rotate(14.4844 69.0062 38.3906)" fill="#1ABCFE"/>
<ellipse cx="58.0551" cy="80.7831" rx="2.5" ry="2.62469" transform="rotate(14.4844 58.0551 80.7831)" fill="#1ABCFE"/>
<ellipse cx="105.208" cy="47.7425" rx="2.5" ry="2.62469" transform="rotate(14.4844 105.208 47.7425)" fill="#1ABCFE"/>
<ellipse cx="94.2567" cy="90.135" rx="2.5" ry="2.62469" transform="rotate(14.4844 94.2567 90.135)" fill="#1ABCFE"/>
</svg>
