<svg width="51" height="50" viewBox="0 0 51 50" fill="none" xmlns="http://www.w3.org/2000/svg">
<rect opacity="0.15" x="0.5" width="50" height="50" rx="12" fill="#1ABCFE"/>
<path d="M14.4473 27.8977C13.9241 27.8977 13.5 27.4736 13.5 26.9504C13.5 26.4273 13.9241 26.0031 14.4473 26.0031H36.5525C37.0757 26.0031 37.4998 26.4273 37.4998 26.9504C37.4998 27.4736 37.0757 27.8977 36.5525 27.8977H14.4473Z" fill="#1ABCFE"/>
<path d="M25.5032 22.8414C23.0617 22.8414 21.0825 20.8622 21.0825 18.4207C21.0825 15.9792 23.0617 14 25.5032 14C27.9447 14 29.9239 15.9792 29.9239 18.4207C29.9239 20.8622 27.9447 22.8414 25.5032 22.8414Z" fill="#706FE5"/>
<path d="M25.5031 19.0522C25.8519 19.0522 26.1346 18.7695 26.1346 18.4207C26.1346 18.0719 25.8519 17.7892 25.5031 17.7892C25.1543 17.7892 24.8716 18.0719 24.8716 18.4207C24.8716 18.7695 25.1543 19.0522 25.5031 19.0522Z" fill="#1ABCFE"/>
<path d="M22.9761 23.5144C21.3723 26.4333 16.8278 34.7534 16.6141 35.1437C16.4443 35.454 16.0527 35.5643 15.7458 35.3882C13.601 34.1572 12.8655 31.4285 14.1015 29.3004L19.8622 19.1409C20.1052 21.0632 21.3084 22.6862 22.9761 23.5144Z" fill="#2E3E5C"/>
<path d="M31.1399 19.1362L36.8988 29.2959C38.1363 31.4291 37.4019 34.1571 35.2598 35.388C34.9527 35.5645 34.5605 35.4539 34.3908 35.143C30.5252 28.0604 28.8135 24.9275 28.0315 23.5113C29.6973 22.6816 30.8985 21.0582 31.1399 19.1362V19.1362Z" fill="#2E3E5C"/>
</svg>
