<svg width="374" height="132" viewBox="0 0 374 132" fill="none" xmlns="http://www.w3.org/2000/svg">
<path d="M24 118C24 123.523 19.5228 128 14 128C8.47715 128 4 123.523 4 118C4 112.477 8.47715 108 14 108C19.5228 108 24 112.477 24 118ZM370 118C370 123.523 365.523 128 360 128C354.477 128 350 123.523 350 118C350 112.477 354.477 108 360 108C365.523 108 370 112.477 370 118ZM24 14C24 19.5228 19.5228 24 14 24C8.47715 24 4 19.5228 4 14C4 8.47715 8.47715 4 14 4C19.5228 4 24 8.47715 24 14ZM370 14C370 19.5228 365.523 24 360 24C354.477 24 350 19.5228 350 14C350 8.47715 354.477 4 360 4C365.523 4 370 8.47715 370 14Z" fill="white" stroke="#1ABCFE" stroke-width="8"/>
</svg>
