<svg width="177" height="36" viewBox="0 0 177 36" fill="none" xmlns="http://www.w3.org/2000/svg">
<path d="M20.08 24L16.576 17.64H15.592V24H11.488V7.152H18.376C19.704 7.152 20.832 7.384 21.76 7.848C22.704 8.312 23.408 8.952 23.872 9.768C24.336 10.568 24.568 11.464 24.568 12.456C24.568 13.576 24.248 14.576 23.608 15.456C22.984 16.336 22.056 16.96 20.824 17.328L24.712 24H20.08ZM15.592 14.736H18.136C18.888 14.736 19.448 14.552 19.816 14.184C20.2 13.816 20.392 13.296 20.392 12.624C20.392 11.984 20.2 11.48 19.816 11.112C19.448 10.744 18.888 10.56 18.136 10.56H15.592V14.736Z" fill="white"/>
<path d="M37.7073 21.024H31.4193L30.4113 24H26.1153L32.2113 7.152H36.9633L43.0593 24H38.7153L37.7073 21.024ZM36.6513 17.856L34.5633 11.688L32.4993 17.856H36.6513Z" fill="white"/>
<path d="M51.3016 7.152C53.0776 7.152 54.6296 7.504 55.9576 8.208C57.2856 8.912 58.3096 9.904 59.0296 11.184C59.7656 12.448 60.1336 13.912 60.1336 15.576C60.1336 17.224 59.7656 18.688 59.0296 19.968C58.3096 21.248 57.2776 22.24 55.9336 22.944C54.6056 23.648 53.0616 24 51.3016 24H44.9896V7.152H51.3016ZM51.0376 20.448C52.5896 20.448 53.7976 20.024 54.6616 19.176C55.5256 18.328 55.9576 17.128 55.9576 15.576C55.9576 14.024 55.5256 12.816 54.6616 11.952C53.7976 11.088 52.5896 10.656 51.0376 10.656H49.0936V20.448H51.0376Z" fill="white"/>
<path d="M66.6061 7.152V24H62.5021V7.152H66.6061Z" fill="white"/>
<path d="M80.1432 21.024H73.8552L72.8472 24H68.5512L74.6472 7.152H79.3992L85.4952 24H81.1512L80.1432 21.024ZM79.0872 17.856L76.9992 11.688L74.9352 17.856H79.0872Z" fill="white"/>
<path d="M91.5295 20.832H96.9055V24H87.4255V7.152H91.5295V20.832Z" fill="white"/>
<path d="M105.25 7.152C107.026 7.152 108.578 7.504 109.906 8.208C111.234 8.912 112.258 9.904 112.978 11.184C113.714 12.448 114.082 13.912 114.082 15.576C114.082 17.224 113.714 18.688 112.978 19.968C112.258 21.248 111.226 22.24 109.882 22.944C108.554 23.648 107.01 24 105.25 24H98.938V7.152H105.25ZM104.986 20.448C106.538 20.448 107.746 20.024 108.61 19.176C109.474 18.328 109.906 17.128 109.906 15.576C109.906 14.024 109.474 12.816 108.61 11.952C107.746 11.088 106.538 10.656 104.986 10.656H103.042V20.448H104.986Z" fill="white"/>
<path d="M126.939 21.024H120.651L119.643 24H115.347L121.443 7.152H126.195L132.291 24H127.947L126.939 21.024ZM125.883 17.856L123.795 11.688L121.731 17.856H125.883Z" fill="white"/>
<path d="M147.061 12.576C147.061 13.552 146.837 14.448 146.389 15.264C145.941 16.064 145.253 16.712 144.325 17.208C143.397 17.704 142.245 17.952 140.869 17.952H138.325V24H134.221V7.152H140.869C142.213 7.152 143.349 7.384 144.277 7.848C145.205 8.312 145.901 8.952 146.365 9.768C146.829 10.584 147.061 11.52 147.061 12.576ZM140.557 14.688C141.341 14.688 141.925 14.504 142.309 14.136C142.693 13.768 142.885 13.248 142.885 12.576C142.885 11.904 142.693 11.384 142.309 11.016C141.925 10.648 141.341 10.464 140.557 10.464H138.325V14.688H140.557Z" fill="white"/>
<path d="M162.112 12.576C162.112 13.552 161.888 14.448 161.44 15.264C160.992 16.064 160.304 16.712 159.376 17.208C158.448 17.704 157.296 17.952 155.92 17.952H153.376V24H149.272V7.152H155.92C157.264 7.152 158.4 7.384 159.328 7.848C160.256 8.312 160.952 8.952 161.416 9.768C161.88 10.584 162.112 11.52 162.112 12.576ZM155.608 14.688C156.392 14.688 156.976 14.504 157.36 14.136C157.744 13.768 157.936 13.248 157.936 12.576C157.936 11.904 157.744 11.384 157.36 11.016C156.976 10.648 156.392 10.464 155.608 10.464H153.376V14.688H155.608Z" fill="white"/>
<path d="M170.42 24.168C169.188 24.168 168.084 23.968 167.108 23.568C166.132 23.168 165.348 22.576 164.756 21.792C164.18 21.008 163.876 20.064 163.844 18.96H168.212C168.276 19.584 168.492 20.064 168.86 20.4C169.228 20.72 169.708 20.88 170.3 20.88C170.908 20.88 171.388 20.744 171.74 20.472C172.092 20.184 172.268 19.792 172.268 19.296C172.268 18.88 172.124 18.536 171.836 18.264C171.564 17.992 171.22 17.768 170.804 17.592C170.404 17.416 169.828 17.216 169.076 16.992C167.988 16.656 167.1 16.32 166.412 15.984C165.724 15.648 165.132 15.152 164.636 14.496C164.14 13.84 163.892 12.984 163.892 11.928C163.892 10.36 164.46 9.136 165.596 8.256C166.732 7.36 168.212 6.912 170.036 6.912C171.892 6.912 173.388 7.36 174.524 8.256C175.66 9.136 176.268 10.368 176.348 11.952H171.908C171.876 11.408 171.676 10.984 171.308 10.68C170.94 10.36 170.468 10.2 169.892 10.2C169.396 10.2 168.996 10.336 168.692 10.608C168.388 10.864 168.236 11.24 168.236 11.736C168.236 12.28 168.492 12.704 169.004 13.008C169.516 13.312 170.316 13.64 171.404 13.992C172.492 14.36 173.372 14.712 174.044 15.048C174.732 15.384 175.324 15.872 175.82 16.512C176.316 17.152 176.564 17.976 176.564 18.984C176.564 19.944 176.316 20.816 175.82 21.6C175.34 22.384 174.636 23.008 173.708 23.472C172.78 23.936 171.684 24.168 170.42 24.168Z" fill="white"/>
<path d="M127 3C127 4.65685 125.657 6 124 6C122.343 6 121 4.65685 121 3C121 1.34315 122.343 0 124 0C125.657 0 127 1.34315 127 3Z" fill="#1ABCFE"/>
<path d="M16 28C16 29.5823 15.5308 31.129 14.6518 32.4446C13.7727 33.7602 12.5233 34.7855 11.0615 35.391C9.59966 35.9965 7.99113 36.155 6.43928 35.8463C4.88743 35.5376 3.46197 34.7757 2.34315 33.6569C1.22433 32.538 0.462403 31.1126 0.153721 29.5607C-0.15496 28.0089 0.00346631 26.4003 0.608967 24.9385C1.21447 23.4767 2.23985 22.2273 3.55544 21.3482C4.87104 20.4692 6.41775 20 8 20V28H16Z" fill="#1ABCFE"/>
</svg>
