<svg width="25" height="24" viewBox="0 0 25 24" fill="none" xmlns="http://www.w3.org/2000/svg">
<path fill-rule="evenodd" clip-rule="evenodd" d="M15.111 17.28L15.879 21.12H17.3C17.5651 21.12 17.78 21.3349 17.78 21.6C17.78 21.8651 17.5651 22.08 17.3 22.08H7.70001C7.43492 22.08 7.22001 21.8651 7.22001 21.6C7.22001 21.3349 7.43492 21.12 7.70001 21.12H9.33201L10.1 17.28H5.78001C4.08731 17.28 2.68695 16.0283 2.45404 14.4H22.546C22.3131 16.0283 20.9127 17.28 19.22 17.28H15.111Z" fill="#2E3E5C"/>
<path d="M2.42 13.44V3.36001C2.42 2.56472 3.06471 1.92001 3.86 1.92001H21.14C21.9353 1.92001 22.58 2.56472 22.58 3.36001V13.44H2.42Z" fill="#1ABCFE"/>
</svg>
