<svg width="16" height="24" viewBox="0 0 16 24" fill="none" xmlns="http://www.w3.org/2000/svg">
<path d="M13.0625 6.70312C13.0625 3.78243 10.6863 1.40625 7.76562 1.40625C4.84493 1.40625 2.46875 3.78243 2.46875 6.70312C2.46875 9.62382 4.84493 12 7.76562 12C10.6863 12 13.0625 9.62382 13.0625 6.70312Z" fill="#1ABCFE"/>
<path d="M15.0312 17.9062V2.57812C15.0312 1.15655 13.8747 0 12.4531 0H3.07812C1.65655 0 0.5 1.15655 0.5 2.57812V17.9062H15.0312ZM9.64062 15.0938H5.89062C5.50231 15.0938 5.1875 14.7789 5.1875 14.3906C5.1875 14.0023 5.50231 13.6875 5.89062 13.6875H9.64062C10.0289 13.6875 10.3438 14.0023 10.3438 14.3906C10.3438 14.7789 10.0289 15.0938 9.64062 15.0938ZM4.01562 6.42188H4.80153C4.87766 6.10106 5.00417 5.79961 5.17302 5.52675L4.6168 4.97053C4.3422 4.69594 4.3422 4.25077 4.6168 3.97617C4.89134 3.70158 5.33656 3.70158 5.61116 3.97617L6.16738 4.53239C6.44023 4.36355 6.74169 4.23703 7.0625 4.16091V3.375C7.0625 2.98669 7.37731 2.67188 7.76562 2.67188C8.15394 2.67188 8.46875 2.98669 8.46875 3.375V4.16091C8.78956 4.23703 9.09102 4.36355 9.36388 4.53239L9.92009 3.97617C10.1946 3.70158 10.6399 3.70158 10.9145 3.97617C11.189 4.25077 11.189 4.69594 10.9145 4.97053L10.3582 5.52675C10.5271 5.79961 10.6536 6.10106 10.7297 6.42188H11.5156C11.9039 6.42188 12.2188 6.73669 12.2188 7.125C12.2188 7.51331 11.9039 7.82812 11.5156 7.82812H10.7297C10.6536 8.14894 10.5271 8.45039 10.3582 8.72325L10.9145 9.27947C11.189 9.55406 11.189 9.99923 10.9145 10.2738C10.7772 10.4111 10.5972 10.4798 10.4173 10.4798C10.2374 10.4798 10.0574 10.4112 9.92014 10.2738L9.36392 9.71761C9.09106 9.88645 8.78961 10.013 8.4688 10.0891V10.875C8.4688 11.2633 8.15398 11.5781 7.76567 11.5781C7.37736 11.5781 7.06255 11.2633 7.06255 10.875V10.0891C6.74173 10.013 6.44028 9.88645 6.16742 9.71761L5.6112 10.2738C5.47391 10.4111 5.29395 10.4798 5.11405 10.4798C4.93414 10.4798 4.75414 10.4112 4.61689 10.2738C4.3423 9.99923 4.3423 9.55406 4.61689 9.27947L5.17311 8.72325C5.00427 8.45039 4.87775 8.14894 4.80163 7.82812H4.01562C3.62731 7.82812 3.3125 7.51331 3.3125 7.125C3.3125 6.73669 3.62731 6.42188 4.01562 6.42188Z" fill="#1ABCFE"/>
<path d="M0.5 19.3125V21.4219C0.5 22.8435 1.65655 24 3.07812 24H12.4531C13.8747 24 15.0312 22.8435 15.0312 21.4219V19.3125H0.5ZM8.70312 22.3594H6.82812C6.43981 22.3594 6.125 22.0446 6.125 21.6562C6.125 21.2679 6.43981 20.9531 6.82812 20.9531H8.70312C9.09144 20.9531 9.40625 21.2679 9.40625 21.6562C9.40625 22.0446 9.09144 22.3594 8.70312 22.3594Z" fill="#2E3E5C"/>
<path d="M5.09375 14.3672C5.09375 13.9659 5.41904 13.6406 5.82031 13.6406H9.75781C10.1591 13.6406 10.4844 13.9659 10.4844 14.3672C10.4844 14.7685 10.1591 15.0938 9.75781 15.0938H5.82031C5.41904 15.0938 5.09375 14.7685 5.09375 14.3672Z" fill="#1ABCFE"/>
<path d="M4.95312 1.75781C4.95312 1.35654 5.27842 1.03125 5.67969 1.03125H9.61719C10.0185 1.03125 10.3438 1.35654 10.3438 1.75781C10.3438 2.15908 10.0185 2.48438 9.61719 2.48438H5.67969C5.27842 2.48438 4.95312 2.15908 4.95312 1.75781Z" fill="#EAE9FB"/>
</svg>
