<svg width="177" height="30" viewBox="0 0 177 30" fill="none" xmlns="http://www.w3.org/2000/svg">
<path d="M20.08 18.0001L16.576 11.6401H15.592V18.0001H11.488V1.15211H18.376C19.704 1.15211 20.832 1.38411 21.76 1.84811C22.704 2.31211 23.408 2.95211 23.872 3.76811C24.336 4.56811 24.568 5.46411 24.568 6.45611C24.568 7.57611 24.248 8.57611 23.608 9.45611C22.984 10.3361 22.056 10.9601 20.824 11.3281L24.712 18.0001H20.08ZM15.592 8.73611H18.136C18.888 8.73611 19.448 8.55211 19.816 8.18411C20.2 7.81611 20.392 7.29611 20.392 6.62411C20.392 5.98411 20.2 5.48011 19.816 5.11211C19.448 4.74411 18.888 4.56011 18.136 4.56011H15.592V8.73611Z" fill="#1E1F4B"/>
<path d="M37.7073 15.0241H31.4193L30.4113 18.0001H26.1153L32.2113 1.15211H36.9633L43.0593 18.0001H38.7153L37.7073 15.0241ZM36.6513 11.8561L34.5633 5.68811L32.4993 11.8561H36.6513Z" fill="#1E1F4B"/>
<path d="M51.3016 1.15211C53.0776 1.15211 54.6296 1.50411 55.9576 2.20811C57.2856 2.91211 58.3096 3.90411 59.0296 5.18411C59.7656 6.44811 60.1336 7.91211 60.1336 9.57611C60.1336 11.2241 59.7656 12.6881 59.0296 13.9681C58.3096 15.2481 57.2776 16.2401 55.9336 16.9441C54.6056 17.6481 53.0616 18.0001 51.3016 18.0001H44.9896V1.15211H51.3016ZM51.0376 14.4481C52.5896 14.4481 53.7976 14.0241 54.6616 13.1761C55.5256 12.3281 55.9576 11.1281 55.9576 9.57611C55.9576 8.02411 55.5256 6.81611 54.6616 5.95211C53.7976 5.08811 52.5896 4.65611 51.0376 4.65611H49.0936V14.4481H51.0376Z" fill="#1E1F4B"/>
<path d="M66.6061 1.15211V18.0001H62.5021V1.15211H66.6061Z" fill="#1E1F4B"/>
<path d="M80.1432 15.0241H73.8552L72.8472 18.0001H68.5512L74.6472 1.15211H79.3992L85.4952 18.0001H81.1512L80.1432 15.0241ZM79.0872 11.8561L76.9992 5.68811L74.9352 11.8561H79.0872Z" fill="#1E1F4B"/>
<path d="M91.5295 14.8321H96.9055V18.0001H87.4255V1.15211H91.5295V14.8321Z" fill="#1E1F4B"/>
<path d="M105.25 1.15211C107.026 1.15211 108.578 1.50411 109.906 2.20811C111.234 2.91211 112.258 3.90411 112.978 5.18411C113.714 6.44811 114.082 7.91211 114.082 9.57611C114.082 11.2241 113.714 12.6881 112.978 13.9681C112.258 15.2481 111.226 16.2401 109.882 16.9441C108.554 17.6481 107.01 18.0001 105.25 18.0001H98.938V1.15211H105.25ZM104.986 14.4481C106.538 14.4481 107.746 14.0241 108.61 13.1761C109.474 12.3281 109.906 11.1281 109.906 9.57611C109.906 8.02411 109.474 6.81611 108.61 5.95211C107.746 5.08811 106.538 4.65611 104.986 4.65611H103.042V14.4481H104.986Z" fill="#1E1F4B"/>
<path d="M126.939 15.0241H120.651L119.643 18.0001H115.347L121.443 1.15211H126.195L132.291 18.0001H127.947L126.939 15.0241ZM125.883 11.8561L123.795 5.68811L121.731 11.8561H125.883Z" fill="#1E1F4B"/>
<path d="M147.061 6.57611C147.061 7.55211 146.837 8.44811 146.389 9.26411C145.941 10.0641 145.253 10.7121 144.325 11.2081C143.397 11.7041 142.245 11.9521 140.869 11.9521H138.325V18.0001H134.221V1.15211H140.869C142.213 1.15211 143.349 1.38411 144.277 1.84811C145.205 2.31211 145.901 2.95211 146.365 3.76811C146.829 4.58411 147.061 5.52011 147.061 6.57611ZM140.557 8.68811C141.341 8.68811 141.925 8.50411 142.309 8.13611C142.693 7.76811 142.885 7.24811 142.885 6.57611C142.885 5.90411 142.693 5.38411 142.309 5.01611C141.925 4.64811 141.341 4.46411 140.557 4.46411H138.325V8.68811H140.557Z" fill="#1E1F4B"/>
<path d="M162.112 6.57611C162.112 7.55211 161.888 8.44811 161.44 9.26411C160.992 10.0641 160.304 10.7121 159.376 11.2081C158.448 11.7041 157.296 11.9521 155.92 11.9521H153.376V18.0001H149.272V1.15211H155.92C157.264 1.15211 158.4 1.38411 159.328 1.84811C160.256 2.31211 160.952 2.95211 161.416 3.76811C161.88 4.58411 162.112 5.52011 162.112 6.57611ZM155.608 8.68811C156.392 8.68811 156.976 8.50411 157.36 8.13611C157.744 7.76811 157.936 7.24811 157.936 6.57611C157.936 5.90411 157.744 5.38411 157.36 5.01611C156.976 4.64811 156.392 4.46411 155.608 4.46411H153.376V8.68811H155.608Z" fill="#1E1F4B"/>
<path d="M170.42 18.1681C169.188 18.1681 168.084 17.9681 167.108 17.5681C166.132 17.1681 165.348 16.5761 164.756 15.7921C164.18 15.0081 163.876 14.0641 163.844 12.9601H168.212C168.276 13.5841 168.492 14.0641 168.86 14.4001C169.228 14.7201 169.708 14.8801 170.3 14.8801C170.908 14.8801 171.388 14.7441 171.74 14.4721C172.092 14.1841 172.268 13.7921 172.268 13.2961C172.268 12.8801 172.124 12.5361 171.836 12.2641C171.564 11.9921 171.22 11.7681 170.804 11.5921C170.404 11.4161 169.828 11.2161 169.076 10.9921C167.988 10.6561 167.1 10.3201 166.412 9.98411C165.724 9.64811 165.132 9.15211 164.636 8.49611C164.14 7.84011 163.892 6.98411 163.892 5.92811C163.892 4.36011 164.46 3.13611 165.596 2.25611C166.732 1.36011 168.212 0.912109 170.036 0.912109C171.892 0.912109 173.388 1.36011 174.524 2.25611C175.66 3.13611 176.268 4.36811 176.348 5.95211H171.908C171.876 5.40811 171.676 4.98411 171.308 4.68011C170.94 4.36011 170.468 4.20011 169.892 4.20011C169.396 4.20011 168.996 4.33611 168.692 4.60811C168.388 4.86411 168.236 5.24011 168.236 5.73611C168.236 6.28011 168.492 6.70411 169.004 7.00811C169.516 7.31211 170.316 7.64011 171.404 7.99211C172.492 8.36011 173.372 8.71211 174.044 9.04811C174.732 9.38411 175.324 9.87211 175.82 10.5121C176.316 11.1521 176.564 11.9761 176.564 12.9841C176.564 13.9441 176.316 14.8161 175.82 15.6001C175.34 16.3841 174.636 17.0081 173.708 17.4721C172.78 17.9361 171.684 18.1681 170.42 18.1681Z" fill="#1E1F4B"/>
<path d="M16 22.0001C16 23.5824 15.5308 25.1291 14.6518 26.4447C13.7727 27.7603 12.5233 28.7856 11.0615 29.3911C9.59966 29.9966 7.99113 30.1551 6.43928 29.8464C4.88743 29.5377 3.46197 28.7758 2.34315 27.657C1.22433 26.5381 0.462403 25.1127 0.153721 23.5608C-0.15496 22.009 0.00346631 20.4005 0.608967 18.9386C1.21447 17.4768 2.23985 16.2274 3.55544 15.3484C4.87104 14.4693 6.41775 14.0001 8 14.0001V22.0001H16Z" fill="#1ABCFE"/>
</svg>
